<?xml version="1.0" encoding="UTF-8"?>
<svg xmlns="http://www.w3.org/2000/svg" viewBox="0 0 1510 450" width="1510" height="450" role="img" aria-label="Keyboard test layout, 104-key ANSI">
  <title>Keyboard Input Test — 104-key ANSI layout</title>
  <desc>Every key group carries data-code matching JavaScript KeyboardEvent.code. Keys highlight on keydown/keyup.</desc>

  <defs>
    <linearGradient id="caseG" x1="0" y1="0" x2="0" y2="1">
      <stop offset="0" stop-color="#1a1f27"/><stop offset="1" stop-color="#0d1015"/>
    </linearGradient>
    <linearGradient id="capG" x1="0" y1="0" x2="0" y2="1">
      <stop offset="0" stop-color="#4a505c"/><stop offset="1" stop-color="#282c35"/>
    </linearGradient>
  </defs>

  <style><![CDATA[
    text  { font-family:'Segoe UI',Roboto,'Helvetica Neue',Arial,sans-serif; fill:#e9edf5; pointer-events:none; user-select:none; }
    .key  { cursor:pointer; transition:transform .06s ease; }
    .cap  { fill:url(#capG); stroke:#0a0c10; stroke-width:1.25; transition:fill .07s ease, stroke .07s ease; }
    .mn   { font-size:21px; font-weight:600; }
    .sh   { font-size:12px; font-weight:600; fill:#8f9bb0; }
    .mid  { text-anchor:middle; }
    .fn   { font-size:12.5px; font-weight:600; fill:#aeb7c6; text-anchor:middle; }
    .bump { fill:none; stroke:#7d8798; stroke-width:2.5; stroke-linecap:round; pointer-events:none; }
    .key:hover .cap { fill:#3d4450; }
    /* lock LEDs (kept lit while Caps/Num/Scroll lock is ON) */
    .key.lock .cap  { fill:#7a5a17; stroke:#e0b34c; filter:drop-shadow(0 0 6px rgba(224,179,76,.8)); }
    .key.lock text  { fill:#ffe9ad; }
    /* pressed / held — change the accent color here */
    .key.on         { transform:translateY(1.5px); }
    .key.on .cap    { fill:#2f6fe4; stroke:#aac9ff; filter:drop-shadow(0 0 6px rgba(84,136,255,.9)); }
    .key.on text    { fill:#ffffff; }
    .key.on .bump   { stroke:#ffffff; }
  ]]></style>

  <!-- case + plate -->
  <rect x="0" y="0" width="1510" height="450" rx="26" fill="url(#caseG)" stroke="#04060a" stroke-width="2.5"/>
  <rect x="16" y="16" width="1478" height="400" rx="14" fill="#141821" stroke="#222834" stroke-width="1.5"/>

  <g transform="translate(28,28)">

    <!-- ══ ROW 0 : function row ══ -->
    <g class="key" data-code="Escape"><rect class="cap" x="0" y="0" width="58" height="58" rx="7"/><text class="fn" x="29" y="33">Esc</text></g>
    <g class="key" data-code="F1"><rect class="cap" x="96" y="0" width="58" height="58" rx="7"/><text class="fn" x="125" y="33">F1</text></g>
    <g class="key" data-code="F2"><rect class="cap" x="160" y="0" width="58" height="58" rx="7"/><text class="fn" x="189" y="33">F2</text></g>
    <g class="key" data-code="F3"><rect class="cap" x="224" y="0" width="58" height="58" rx="7"/><text class="fn" x="253" y="33">F3</text></g>
    <g class="key" data-code="F4"><rect class="cap" x="288" y="0" width="58" height="58" rx="7"/><text class="fn" x="317" y="33">F4</text></g>
    <g class="key" data-code="F5"><rect class="cap" x="384" y="0" width="58" height="58" rx="7"/><text class="fn" x="413" y="33">F5</text></g>
    <g class="key" data-code="F6"><rect class="cap" x="448" y="0" width="58" height="58" rx="7"/><text class="fn" x="477" y="33">F6</text></g>
    <g class="key" data-code="F7"><rect class="cap" x="512" y="0" width="58" height="58" rx="7"/><text class="fn" x="541" y="33">F7</text></g>
    <g class="key" data-code="F8"><rect class="cap" x="576" y="0" width="58" height="58" rx="7"/><text class="fn" x="605" y="33">F8</text></g>
    <g class="key" data-code="F9"><rect class="cap" x="672" y="0" width="58" height="58" rx="7"/><text class="fn" x="701" y="33">F9</text></g>
    <g class="key" data-code="F10"><rect class="cap" x="736" y="0" width="58" height="58" rx="7"/><text class="fn" x="765" y="33">F10</text></g>
    <g class="key" data-code="F11"><rect class="cap" x="800" y="0" width="58" height="58" rx="7"/><text class="fn" x="829" y="33">F11</text></g>
    <g class="key" data-code="F12"><rect class="cap" x="864" y="0" width="58" height="58" rx="7"/><text class="fn" x="893" y="33">F12</text></g>
    <g class="key" data-code="PrintScreen"><rect class="cap" x="986" y="0" width="58" height="58" rx="7"/><text class="fn" x="1015" y="33">PrtSc</text></g>
    <g class="key" data-code="ScrollLock"><rect class="cap" x="1050" y="0" width="58" height="58" rx="7"/><text class="fn" x="1079" y="33">ScrLk</text></g>
    <g class="key" data-code="Pause"><rect class="cap" x="1114" y="0" width="58" height="58" rx="7"/><text class="fn" x="1143" y="33">Pause</text></g>

    <!-- ══ ROW 1 : numbers ══ -->
    <g class="key" data-code="Backquote"><rect class="cap" x="0" y="64" width="58" height="58" rx="7"/><text class="sh" x="11" y="82">~</text><text class="mn" x="11" y="109">`</text></g>
    <g class="key" data-code="Digit1"><rect class="cap" x="64" y="64" width="58" height="58" rx="7"/><text class="sh" x="75" y="82">!</text><text class="mn" x="75" y="109">1</text></g>
    <g class="key" data-code="Digit2"><rect class="cap" x="128" y="64" width="58" height="58" rx="7"/><text class="sh" x="139" y="82">@</text><text class="mn" x="139" y="109">2</text></g>
    <g class="key" data-code="Digit3"><rect class="cap" x="192" y="64" width="58" height="58" rx="7"/><text class="sh" x="203" y="82">#</text><text class="mn" x="203" y="109">3</text></g>
    <g class="key" data-code="Digit4"><rect class="cap" x="256" y="64" width="58" height="58" rx="7"/><text class="sh" x="267" y="82">$</text><text class="mn" x="267" y="109">4</text></g>
    <g class="key" data-code="Digit5"><rect class="cap" x="320" y="64" width="58" height="58" rx="7"/><text class="sh" x="331" y="82">%</text><text class="mn" x="331" y="109">5</text></g>
    <g class="key" data-code="Digit6"><rect class="cap" x="384" y="64" width="58" height="58" rx="7"/><text class="sh" x="395" y="82">^</text><text class="mn" x="395" y="109">6</text></g>
    <g class="key" data-code="Digit7"><rect class="cap" x="448" y="64" width="58" height="58" rx="7"/><text class="sh" x="459" y="82">&amp;</text><text class="mn" x="459" y="109">7</text></g>
    <g class="key" data-code="Digit8"><rect class="cap" x="512" y="64" width="58" height="58" rx="7"/><text class="sh" x="523" y="82">*</text><text class="mn" x="523" y="109">8</text></g>
    <g class="key" data-code="Digit9"><rect class="cap" x="576" y="64" width="58" height="58" rx="7"/><text class="sh" x="587" y="82">(</text><text class="mn" x="587" y="109">9</text></g>
    <g class="key" data-code="Digit0"><rect class="cap" x="640" y="64" width="58" height="58" rx="7"/><text class="sh" x="651" y="82">)</text><text class="mn" x="651" y="109">0</text></g>
    <g class="key" data-code="Minus"><rect class="cap" x="704" y="64" width="58" height="58" rx="7"/><text class="sh" x="715" y="82">_</text><text class="mn" x="715" y="109">-</text></g>
    <g class="key" data-code="Equal"><rect class="cap" x="768" y="64" width="58" height="58" rx="7"/><text class="sh" x="779" y="82">+</text><text class="mn" x="779" y="109">=</text></g>
    <g class="key" data-code="Backspace"><rect class="cap" x="832" y="64" width="122" height="58" rx="7"/><text class="fn" x="893" y="97">Backspace</text></g>
    <g class="key" data-code="Insert"><rect class="cap" x="986" y="64" width="58" height="58" rx="7"/><text class="fn" x="1015" y="97">Insert</text></g>
    <g class="key" data-code="Home"><rect class="cap" x="1050" y="64" width="58" height="58" rx="7"/><text class="fn" x="1079" y="97">Home</text></g>
    <g class="key" data-code="PageUp"><rect class="cap" x="1114" y="64" width="58" height="58" rx="7"/><text class="fn" x="1143" y="97">PgUp</text></g>
    <g class="key" data-code="NumLock"><rect class="cap" x="1204" y="64" width="58" height="58" rx="7"/><text class="fn" x="1233" y="97">NumLk</text></g>
    <g class="key" data-code="NumpadDivide"><rect class="cap" x="1268" y="64" width="58" height="58" rx="7"/><text class="mn mid" x="1297" y="100">/</text></g>
    <g class="key" data-code="NumpadMultiply"><rect class="cap" x="1332" y="64" width="58" height="58" rx="7"/><text class="mn mid" x="1361" y="100">*</text></g>
    <g class="key" data-code="NumpadSubtract"><rect class="cap" x="1396" y="64" width="58" height="58" rx="7"/><text class="mn mid" x="1425" y="100">-</text></g>

    <!-- ══ ROW 2 : QWERTY ══ -->
    <g class="key" data-code="Tab"><rect class="cap" x="0" y="128" width="90" height="58" rx="7"/><text class="fn" x="45" y="161">Tab</text></g>
    <g class="key" data-code="KeyQ"><rect class="cap" x="96" y="128" width="58" height="58" rx="7"/><text class="mn mid" x="125" y="164">Q</text></g>
    <g class="key" data-code="KeyW"><rect class="cap" x="160" y="128" width="58" height="58" rx="7"/><text class="mn mid" x="189" y="164">W</text></g>
    <g class="key" data-code="KeyE"><rect class="cap" x="224" y="128" width="58" height="58" rx="7"/><text class="mn mid" x="253" y="164">E</text></g>
    <g class="key" data-code="KeyR"><rect class="cap" x="288" y="128" width="58" height="58" rx="7"/><text class="mn mid" x="317" y="164">R</text></g>
    <g class="key" data-code="KeyT"><rect class="cap" x="352" y="128" width="58" height="58" rx="7"/><text class="mn mid" x="381" y="164">T</text></g>
    <g class="key" data-code="KeyY"><rect class="cap" x="416" y="128" width="58" height="58" rx="7"/><text class="mn mid" x="445" y="164">Y</text></g>
    <g class="key" data-code="KeyU"><rect class="cap" x="480" y="128" width="58" height="58" rx="7"/><text class="mn mid" x="509" y="164">U</text></g>
    <g class="key" data-code="KeyI"><rect class="cap" x="544" y="128" width="58" height="58" rx="7"/><text class="mn mid" x="573" y="164">I</text></g>
    <g class="key" data-code="KeyO"><rect class="cap" x="608" y="128" width="58" height="58" rx="7"/><text class="mn mid" x="637" y="164">O</text></g>
    <g class="key" data-code="KeyP"><rect class="cap" x="672" y="128" width="58" height="58" rx="7"/><text class="mn mid" x="701" y="164">P</text></g>
    <g class="key" data-code="BracketLeft"><rect class="cap" x="736" y="128" width="58" height="58" rx="7"/><text class="sh" x="747" y="146">{</text><text class="mn" x="747" y="173">[</text></g>
    <g class="key" data-code="BracketRight"><rect class="cap" x="800" y="128" width="58" height="58" rx="7"/><text class="sh" x="811" y="146">}</text><text class="mn" x="811" y="173">]</text></g>
    <g class="key" data-code="Backslash"><rect class="cap" x="864" y="128" width="90" height="58" rx="7"/><text class="sh" x="875" y="146">|</text><text class="mn" x="875" y="173">\</text></g>
    <g class="key" data-code="Delete"><rect class="cap" x="986" y="128" width="58" height="58" rx="7"/><text class="fn" x="1015" y="161">Delete</text></g>
    <g class="key" data-code="End"><rect class="cap" x="1050" y="128" width="58" height="58" rx="7"/><text class="fn" x="1079" y="161">End</text></g>
    <g class="key" data-code="PageDown"><rect class="cap" x="1114" y="128" width="58" height="58" rx="7"/><text class="fn" x="1143" y="161">PgDn</text></g>
    <g class="key" data-code="Numpad7"><rect class="cap" x="1204" y="128" width="58" height="58" rx="7"/><text class="sh mid" x="1233" y="143">Home</text><text class="mn mid" x="1233" y="169">7</text></g>
    <g class="key" data-code="Numpad8"><rect class="cap" x="1268" y="128" width="58" height="58" rx="7"/><text class="sh mid" x="1297" y="143">↑</text><text class="mn mid" x="1297" y="169">8</text></g>
    <g class="key" data-code="Numpad9"><rect class="cap" x="1332" y="128" width="58" height="58" rx="7"/><text class="sh mid" x="1361" y="143">PgUp</text><text class="mn mid" x="1361" y="169">9</text></g>
    <g class="key" data-code="NumpadAdd"><rect class="cap" x="1396" y="128" width="58" height="122" rx="7"/><text class="mn mid" x="1425" y="196">+</text></g>

    <!-- ══ ROW 3 : home row ══ -->
    <g class="key" data-code="CapsLock"><rect class="cap" x="0" y="192" width="106" height="58" rx="7"/><text class="fn" x="53" y="225">Caps Lock</text></g>
    <g class="key" data-code="KeyA"><rect class="cap" x="112" y="192" width="58" height="58" rx="7"/><text class="mn mid" x="141" y="228">A</text></g>
    <g class="key" data-code="KeyS"><rect class="cap" x="176" y="192" width="58" height="58" rx="7"/><text class="mn mid" x="205" y="228">S</text></g>
    <g class="key" data-code="KeyD"><rect class="cap" x="240" y="192" width="58" height="58" rx="7"/><text class="mn mid" x="269" y="228">D</text></g>
    <g class="key" data-code="KeyF"><rect class="cap" x="304" y="192" width="58" height="58" rx="7"/><text class="mn mid" x="333" y="228">F</text><path class="bump" d="M324 244h18"/></g>
    <g class="key" data-code="KeyG"><rect class="cap" x="368" y="192" width="58" height="58" rx="7"/><text class="mn mid" x="397" y="228">G</text></g>
    <g class="key" data-code="KeyH"><rect class="cap" x="432" y="192" width="58" height="58" rx="7"/><text class="mn mid" x="461" y="228">H</text></g>
    <g class="key" data-code="KeyJ"><rect class="cap" x="496" y="192" width="58" height="58" rx="7"/><text class="mn mid" x="525" y="228">J</text><path class="bump" d="M516 244h18"/></g>
    <g class="key" data-code="KeyK"><rect class="cap" x="560" y="192" width="58" height="58" rx="7"/><text class="mn mid" x="589" y="228">K</text></g>
    <g class="key" data-code="KeyL"><rect class="cap" x="624" y="192" width="58" height="58" rx="7"/><text class="mn mid" x="653" y="228">L</text></g>
    <g class="key" data-code="Semicolon"><rect class="cap" x="688" y="192" width="58" height="58" rx="7"/><text class="sh" x="699" y="210">:</text><text class="mn" x="699" y="237">;</text></g>
    <g class="key" data-code="Quote"><rect class="cap" x="752" y="192" width="58" height="58" rx="7"/><text class="sh" x="763" y="210">"</text><text class="mn" x="763" y="237">'</text></g>
    <g class="key" data-code="Enter"><rect class="cap" x="816" y="192" width="138" height="58" rx="7"/><text class="fn" x="885" y="225">Enter</text></g>
    <g class="key" data-code="Numpad4"><rect class="cap" x="1204" y="192" width="58" height="58" rx="7"/><text class="sh mid" x="1233" y="207">←</text><text class="mn mid" x="1233" y="233">4</text></g>
    <g class="key" data-code="Numpad5"><rect class="cap" x="1268" y="192" width="58" height="58" rx="7"/><text class="mn mid" x="1297" y="233">5</text><path class="bump" d="M1288 244h18"/></g>
    <g class="key" data-code="Numpad6"><rect class="cap" x="1332" y="192" width="58" height="58" rx="7"/><text class="sh mid" x="1361" y="207">→</text><text class="mn mid" x="1361" y="233">6</text></g>

    <!-- ══ ROW 4 : bottom row ══ -->
    <g class="key" data-code="ShiftLeft"><rect class="cap" x="0" y="256" width="138" height="58" rx="7"/><text class="fn" x="69" y="289">Shift</text></g>
    <g class="key" data-code="KeyZ"><rect class="cap" x="144" y="256" width="58" height="58" rx="7"/><text class="mn mid" x="173" y="292">Z</text></g>
    <g class="key" data-code="KeyX"><rect class="cap" x="208" y="256" width="58" height="58" rx="7"/><text class="mn mid" x="237" y="292">X</text></g>
    <g class="key" data-code="KeyC"><rect class="cap" x="272" y="256" width="58" height="58" rx="7"/><text class="mn mid" x="301" y="292">C</text></g>
    <g class="key" data-code="KeyV"><rect class="cap" x="336" y="256" width="58" height="58" rx="7"/><text class="mn mid" x="365" y="292">V</text></g>
    <g class="key" data-code="KeyB"><rect class="cap" x="400" y="256" width="58" height="58" rx="7"/><text class="mn mid" x="429" y="292">B</text></g>
    <g class="key" data-code="KeyN"><rect class="cap" x="464" y="256" width="58" height="58" rx="7"/><text class="mn mid" x="493" y="292">N</text></g>
    <g class="key" data-code="KeyM"><rect class="cap" x="528" y="256" width="58" height="58" rx="7"/><text class="mn mid" x="557" y="292">M</text></g>
    <g class="key" data-code="Comma"><rect class="cap" x="592" y="256" width="58" height="58" rx="7"/><text class="sh" x="603" y="274">&lt;</text><text class="mn" x="603" y="301">,</text></g>
    <g class="key" data-code="Period"><rect class="cap" x="656" y="256" width="58" height="58" rx="7"/><text class="sh" x="667" y="274">&gt;</text><text class="mn" x="667" y="301">.</text></g>
    <g class="key" data-code="Slash"><rect class="cap" x="720" y="256" width="58" height="58" rx="7"/><text class="sh" x="731" y="274">?</text><text class="mn" x="731" y="301">/</text></g>
    <g class="key" data-code="ShiftRight"><rect class="cap" x="784" y="256" width="170" height="58" rx="7"/><text class="fn" x="869" y="289">Shift</text></g>
    <g class="key" data-code="ArrowUp"><rect class="cap" x="1050" y="256" width="58" height="58" rx="7"/><text class="fn" x="1079" y="289">↑</text></g>
    <g class="key" data-code="Numpad1"><rect class="cap" x="1204" y="256" width="58" height="58" rx="7"/><text class="sh mid" x="1233" y="271">End</text><text class="mn mid" x="1233" y="297">1</text></g>
    <g class="key" data-code="Numpad2"><rect class="cap" x="1268" y="256" width="58" height="58" rx="7"/><text class="sh mid" x="1297" y="271">↓</text><text class="mn mid" x="1297" y="297">2</text></g>
    <g class="key" data-code="Numpad3"><rect class="cap" x="1332" y="256" width="58" height="58" rx="7"/><text class="sh mid" x="1361" y="271">PgDn</text><text class="mn mid" x="1361" y="297">3</text></g>
    <g class="key" data-code="NumpadEnter"><rect class="cap" x="1396" y="256" width="58" height="122" rx="7"/><text class="fn" x="1425" y="321">Enter</text></g>

    <!-- ══ ROW 5 : modifiers ══ -->
    <g class="key" data-code="ControlLeft"><rect class="cap" x="0" y="320" width="74" height="58" rx="7"/><text class="fn" x="37" y="353">Ctrl</text></g>
    <g class="key" data-code="MetaLeft"><rect class="cap" x="80" y="320" width="74" height="58" rx="7"/><text class="fn" x="117" y="353">Win</text></g>
    <g class="key" data-code="AltLeft"><rect class="cap" x="160" y="320" width="74" height="58" rx="7"/><text class="fn" x="197" y="353">Alt</text></g>
    <g class="key" data-code="Space"><rect class="cap" x="240" y="320" width="394" height="58" rx="7"/><text class="fn" x="437" y="353">Space</text></g>
    <g class="key" data-code="AltRight"><rect class="cap" x="640" y="320" width="74" height="58" rx="7"/><text class="fn" x="677" y="353">Alt</text></g>
    <g class="key" data-code="MetaRight"><rect class="cap" x="720" y="320" width="74" height="58" rx="7"/><text class="fn" x="757" y="353">Win</text></g>
    <g class="key" data-code="ContextMenu"><rect class="cap" x="800" y="320" width="74" height="58" rx="7"/><text class="fn" x="837" y="353">Menu</text></g>
    <g class="key" data-code="ControlRight"><rect class="cap" x="880" y="320" width="74" height="58" rx="7"/><text class="fn" x="917" y="353">Ctrl</text></g>
    <g class="key" data-code="ArrowLeft"><rect class="cap" x="986" y="320" width="58" height="58" rx="7"/><text class="fn" x="1015" y="353">←</text></g>
    <g class="key" data-code="ArrowDown"><rect class="cap" x="1050" y="320" width="58" height="58" rx="7"/><text class="fn" x="1079" y="353">↓</text></g>
    <g class="key" data-code="ArrowRight"><rect class="cap" x="1114" y="320" width="58" height="58" rx="7"/><text class="fn" x="1143" y="353">→</text></g>
    <g class="key" data-code="Numpad0"><rect class="cap" x="1204" y="320" width="122" height="58" rx="7"/><text class="sh mid" x="1265" y="335">Ins</text><text class="mn mid" x="1265" y="361">0</text></g>
    <g class="key" data-code="NumpadDecimal"><rect class="cap" x="1332" y="320" width="58" height="58" rx="7"/><text class="sh mid" x="1361" y="335">Del</text><text class="mn mid" x="1361" y="361">.</text></g>
  </g>
</svg>