<svg xmlns="http://www.w3.org/2000/svg" width="1100" height="620" viewBox="0 0 1100 620"><rect width="1100" height="620" fill="#10151b"/><text x="90" y="26" fill="#f2f5f7" font-family="sans-serif" font-size="18">GTA San Andreas — OnePlus Pad 2 benchmark</text><text x="90" y="602" fill="#aeb8c2" font-family="sans-serif" font-size="12">Gameplay runs; FPS from native emu_flip/presented-frame counter. Charging power was not measured.</text><line x1="90" x2="1060" y1="535.0" y2="535.0" stroke="#2b3640"/><text x="78" y="539.0" text-anchor="end" fill="#aeb8c2" font-family="sans-serif" font-size="11">0</text><line x1="90" x2="1060" y1="453.3" y2="453.3" stroke="#2b3640"/><text x="78" y="457.3" text-anchor="end" fill="#aeb8c2" font-family="sans-serif" font-size="11">10</text><line x1="90" x2="1060" y1="371.7" y2="371.7" stroke="#2b3640"/><text x="78" y="375.7" text-anchor="end" fill="#aeb8c2" font-family="sans-serif" font-size="11">20</text><line x1="90" x2="1060" y1="290.0" y2="290.0" stroke="#2b3640"/><text x="78" y="294.0" text-anchor="end" fill="#aeb8c2" font-family="sans-serif" font-size="11">30</text><line x1="90" x2="1060" y1="208.3" y2="208.3" stroke="#2b3640"/><text x="78" y="212.3" text-anchor="end" fill="#aeb8c2" font-family="sans-serif" font-size="11">40</text><line x1="90" x2="1060" y1="126.7" y2="126.7" stroke="#2b3640"/><text x="78" y="130.7" text-anchor="end" fill="#aeb8c2" font-family="sans-serif" font-size="11">50</text><line x1="90" x2="1060" y1="45.0" y2="45.0" stroke="#2b3640"/><text x="78" y="49.0" text-anchor="end" fill="#aeb8c2" font-family="sans-serif" font-size="11">60</text><line x1="90" x2="1060" y1="371.7" y2="371.7" stroke="#e6a23c" stroke-dasharray="6 5"/><text x="1056" y="365.7" text-anchor="end" fill="#e6a23c" font-family="sans-serif" font-size="11">reported ~20 FPS reference</text><polyline points="90.0,291.2 178.2,291.4 266.4,291.4 354.5,291.5 442.7,291.3 530.9,291.6 619.1,291.3 707.3,291.1 795.5,291.5 883.6,291.4 971.8,291.3 1060.0,291.4" fill="none" stroke="#69c0ff" stroke-width="3"/><circle cx="90.0" cy="291.2" r="5" fill="#69c0ff"/><text x="90.0" y="567" text-anchor="end" transform="rotate(-35 90.0,567)" fill="#d2d9df" font-family="sans-serif" font-size="11">cold-continue</text><text x="90.0" y="281.2" text-anchor="middle" fill="#f2f5f7" font-family="sans-serif" font-size="11">29.9</text><circle cx="178.2" cy="291.4" r="5" fill="#69c0ff"/><text x="178.2" y="567" text-anchor="end" transform="rotate(-35 178.2,567)" fill="#d2d9df" font-family="sans-serif" font-size="11">final-build</text><text x="178.2" y="281.4" text-anchor="middle" fill="#f2f5f7" font-family="sans-serif" font-size="11">29.8</text><circle cx="266.4" cy="291.4" r="5" fill="#69c0ff"/><text x="266.4" y="567" text-anchor="end" transform="rotate(-35 266.4,567)" fill="#d2d9df" font-family="sans-serif" font-size="11">frame-off</text><text x="266.4" y="281.4" text-anchor="middle" fill="#f2f5f7" font-family="sans-serif" font-size="11">29.8</text><circle cx="354.5" cy="291.5" r="5" fill="#69c0ff"/><text x="354.5" y="567" text-anchor="end" transform="rotate(-35 354.5,567)" fill="#d2d9df" font-family="sans-serif" font-size="11">fresh</text><text x="354.5" y="281.5" text-anchor="middle" fill="#f2f5f7" font-family="sans-serif" font-size="11">29.8</text><circle cx="442.7" cy="291.3" r="5" fill="#69c0ff"/><text x="442.7" y="567" text-anchor="end" transform="rotate(-35 442.7,567)" fill="#d2d9df" font-family="sans-serif" font-size="11">logmonitor-off-final</text><text x="442.7" y="281.3" text-anchor="middle" fill="#f2f5f7" font-family="sans-serif" font-size="11">29.8</text><circle cx="530.9" cy="291.6" r="5" fill="#69c0ff"/><text x="530.9" y="567" text-anchor="end" transform="rotate(-35 530.9,567)" fill="#d2d9df" font-family="sans-serif" font-size="11">logmonitor-on-final</text><text x="530.9" y="281.6" text-anchor="middle" fill="#f2f5f7" font-family="sans-serif" font-size="11">29.8</text><circle cx="619.1" cy="291.3" r="5" fill="#69c0ff"/><text x="619.1" y="567" text-anchor="end" transform="rotate(-35 619.1,567)" fill="#d2d9df" font-family="sans-serif" font-size="11">long-20m</text><text x="619.1" y="281.3" text-anchor="middle" fill="#f2f5f7" font-family="sans-serif" font-size="11">29.8</text><circle cx="707.3" cy="291.1" r="5" fill="#69c0ff"/><text x="707.3" y="567" text-anchor="end" transform="rotate(-35 707.3,567)" fill="#d2d9df" font-family="sans-serif" font-size="11">manual-load</text><text x="707.3" y="281.1" text-anchor="middle" fill="#f2f5f7" font-family="sans-serif" font-size="11">29.9</text><circle cx="795.5" cy="291.5" r="5" fill="#69c0ff"/><text x="795.5" y="567" text-anchor="end" transform="rotate(-35 795.5,567)" fill="#d2d9df" font-family="sans-serif" font-size="11">monitor-off</text><text x="795.5" y="281.5" text-anchor="middle" fill="#f2f5f7" font-family="sans-serif" font-size="11">29.8</text><circle cx="883.6" cy="291.4" r="5" fill="#69c0ff"/><text x="883.6" y="567" text-anchor="end" transform="rotate(-35 883.6,567)" fill="#d2d9df" font-family="sans-serif" font-size="11">restart</text><text x="883.6" y="281.4" text-anchor="middle" fill="#f2f5f7" font-family="sans-serif" font-size="11">29.8</text><circle cx="971.8" cy="291.3" r="5" fill="#69c0ff"/><text x="971.8" y="567" text-anchor="end" transform="rotate(-35 971.8,567)" fill="#d2d9df" font-family="sans-serif" font-size="11">save-auto-recovery</text><text x="971.8" y="281.3" text-anchor="middle" fill="#f2f5f7" font-family="sans-serif" font-size="11">29.8</text><circle cx="1060.0" cy="291.4" r="5" fill="#69c0ff"/><text x="1060.0" y="567" text-anchor="end" transform="rotate(-35 1060.0,567)" fill="#d2d9df" font-family="sans-serif" font-size="11">vsync-on</text><text x="1060.0" y="281.4" text-anchor="middle" fill="#f2f5f7" font-family="sans-serif" font-size="11">29.8</text></svg>
